# xmcd CD database file
#
# Track frame offsets:
#	150
#	15274
#	29635
#	44807
#	65084
#	85021
#	101621
#	116157
#	127792
#	137822
#	148405
#	167790
#	182187
#	194944
#	206838
#	226513
#	238032
#	250437
#	262012
#	272419
#	290029
#	303453
#	327412
#
# Disc length: 4583 seconds
#
# Revision: 0
# Processed by: cddbd v1.5.1PL0 Copyright (c) Steve Scherf et al.
# Submitted via: CDex 1.51
#
DISCID=6c11e517
DTITLE=Various Artist - A Fistful Of Hollers
DYEAR=2004
DGENRE=Country
TTITLE0=Big and Rich - Save a Horse (Ride a Cowboy)
TTITLE1=Dr Hook - The Millionaire 
TTITLE2=Matraca Berg - Back In The Saddle
TTITLE3=Kris Kristofferson - Sunday Morning Coming Down
TTITLE4=Notorious Cherry Bombs - Its Hard To Kiss The Lips At Night
TTITLE5=Johnny Cash - A Boy Named Sue (Live)
TTITLE6=Deanna Carter - Did I Shave My Legs For This
TTITLE7=Joe Ely - Musta Notta Gotta Lotta
TTITLE8=Bobby Bare - Drop Kick Me Jesus
TTITLE9=Jerry Reed - When You're Hot You're Hot
TTITLE10=Countdown Singers - Goodbye Earl
TTITLE11=George Jones - If Drinking Don't Kill Me (Her Memory Will)
TTITLE12=Johnny Cash - The One On The Right Is On The Left
TTITLE13=Jerry Lee Lewis - What's Made Milwaukee Famous
TTITLE14=Mac Davis - Its Hard To Be Humble
TTITLE15=Travis Tritt - Here's A Quarter (Call Someone Who Cares)
TTITLE16=Jimmy Buffet - Why Don't We Get Drunk?
TTITLE17=Conway Twitty and Loretta Lynn - You're The Reason Our Kids Are Ugly
TTITLE18=Marty Stuart - Too Much Month At The End Of The Money
TTITLE19=Byrds - Drug StoreTruck Drivin' Man
TTITLE20=Waylon Jennings - Are You Sure Hank Done It This Way?
TTITLE21=David Allen Coe - You Never Even Called Me By My Name
TTITLE22=Big House - Cold Outside
EXTD=YEAR: 2004
EXTT0=
EXTT1=
EXTT2=
EXTT3=
EXTT4=
EXTT5=
EXTT6=
EXTT7=
EXTT8=
EXTT9=
EXTT10=
EXTT11=
EXTT12=
EXTT13=
EXTT14=
EXTT15=
EXTT16=
EXTT17=
EXTT18=
EXTT19=
EXTT20=
EXTT21=
EXTT22=
PLAYORDER=
